<svg xmlns="http://www.w3.org/2000/svg" width="126.21" height="182.841" viewBox="0 0 126.21 182.841">
  <g id="Group_750" data-name="Group 750" transform="translate(-715.179 -183.302)">
    <g id="Group_751" data-name="Group 751" transform="translate(715.679 183.302)">
      <path id="Exclusion_1" data-name="Exclusion 1" d="M5.711,60.005c-.556,0-1.118-.006-1.661-.013H4.016c-.54-.006-1.1-.012-1.648-.012S1.36,59.986.924,60H.861a.887.887,0,0,1-.67-.212,1.219,1.219,0,0,1-.174-.907c0-.091.009-.184.008-.272C.016,53.948.017,49.229.018,44.667v-.791q0-1.626,0-3.253H.007c0-1.77,0-3.58,0-5.177,0-4-.009-8.142.011-12.233C.033,19.534,1.6,16.351,3.348,13.145a26.209,26.209,0,0,1,6.288-7.76,23.456,23.456,0,0,1,8.8-4.531A23.245,23.245,0,0,1,24.562,0,20.757,20.757,0,0,1,36.739,3.991a30.052,30.052,0,0,1,3.829,3.2,26.453,26.453,0,0,1,3.1,3.694,25.863,25.863,0,0,1,2.355,4.2,28.29,28.29,0,0,1,1.6,4.728,36.136,36.136,0,0,1,.963,8.674c0,2.774,0,5.653,0,8.192,0,6.792-.006,13.815.033,20.729a1.921,1.921,0,0,1-.363,1.406,1.381,1.381,0,0,1-1.032.32c-.091,0-.189,0-.292-.011-.55-.038-1.134-.056-1.839-.056-.521,0-1.051.01-1.563.019h-.005c-.513.009-1.044.019-1.57.019a21.209,21.209,0,0,1-3.065-.183,18.646,18.646,0,0,1-4.411-1.215,26.79,26.79,0,0,1-4.054-2.1l-.13-.081A30.544,30.544,0,0,1,25,51.7c-.194-.188-.394-.381-.594-.381-.17,0-.329.134-.5.42a12.22,12.22,0,0,1-2.014,2.533,14.647,14.647,0,0,1-2.458,1.9,33.518,33.518,0,0,1-5.72,2.672,16.444,16.444,0,0,1-3.971.958A33.7,33.7,0,0,1,5.711,60.005ZM17.988,13.2a2.076,2.076,0,0,0-.981.4l-.124.076c-2.431,1.467-3.691,3.889-4.909,6.231l-.1.2-.075.144-.018.034a6.293,6.293,0,0,0-.958,2.9c.005,2.172.018,4.38.03,6.516v.1c.011,2.027.023,4.123.029,6.183.008,2.7.006,5.324,0,8.1v.2c0,1.138,0,2.314,0,3.488,3.756-1.467,7.839-6.407,7.692-11.15-.156-5.022-.123-10.133-.09-15.077v0c.015-2.27.03-4.617.027-6.926a3.084,3.084,0,0,1,.035-.389c.05-.379.1-.771-.226-.951A.67.67,0,0,0,17.988,13.2Zm12.1-.534a.3.3,0,0,0-.224.089,1.279,1.279,0,0,0-.187.873c.027,2.905.021,5.855.016,8.708,0,1.05,0,2,0,2.946,0,4.306,0,7.872,0,11.222,0,.108-.007.22-.013.329a1.966,1.966,0,0,0,.061.814c1.386,3.538,3.233,7.058,7.326,8.84a1.48,1.48,0,0,0,.553.151.319.319,0,0,0,.241-.087c.133-.136.126-.419.119-.718q0-.049,0-.1c-.047-2.533-.009-5.107.028-7.6a126.42,126.42,0,0,0-.3-13.821,15.259,15.259,0,0,0-6.9-11.33A1.413,1.413,0,0,0,30.086,12.666Z" transform="translate(38.377 37.589)" fill="#fff" stroke="rgba(0,0,0,0)" stroke-width="1"/>
      <path id="Exclusion_3" data-name="Exclusion 3" d="M.985,76.586a1.006,1.006,0,0,1-.737-.221c-.21-.211-.225-.559-.223-1.028.013-3.336.011-6.709.01-9.971,0-1.148,0-2.449,0-3.7q0-5.924,0-11.848v-.075C.037,34.035.04,17.79,0,1.814A2,2,0,0,1,.362.339,1.658,1.658,0,0,1,1.587,0c.069,0,.144,0,.221,0C3.043.046,4.4.066,6.087.066c.856,0,1.741,0,2.521-.009s1.636-.009,2.5-.009c.434,0,.827,0,1.2,0A12.179,12.179,0,0,1,16.764.9a10.9,10.9,0,0,1,3.571,2.3,10.721,10.721,0,0,1,2.4,3.491,11.786,11.786,0,0,1,.933,4.413c.1,4.487.108,9.234.036,15.394A13.016,13.016,0,0,1,22.5,32.038a10.931,10.931,0,0,1-1.518,2.33,12.24,12.24,0,0,1-2.183,2,.756.756,0,0,0-.176.221c-.029.047-.063.1-.1.156A14.94,14.94,0,0,1,21.3,38.7a10.844,10.844,0,0,1,1.992,2.382,10.2,10.2,0,0,1,1.183,2.846,12.892,12.892,0,0,1,.355,3.349c-.062,3.393-.048,6.844-.034,10.182v0c.007,1.7.014,3.467.011,5.209a19.065,19.065,0,0,1-.283,3.312,14.787,14.787,0,0,1-.883,3.053,13.146,13.146,0,0,1-1.556,2.76,14.024,14.024,0,0,1-2.3,2.43,9.289,9.289,0,0,1-5.49,2.2c-1.994.122-3.982.138-5.49.138-.781,0-1.57,0-2.334-.009-.72,0-1.536-.009-2.319-.009-1.2,0-2.177.011-3.092.035ZM8.079,39.044a1.085,1.085,0,0,0-.813.236,1.321,1.321,0,0,0-.247.98c.032,3.624.028,7.308.023,10.871v.022c0,1.355,0,2.575,0,3.79,0,1.3,0,2.622.007,3.9v.02c.01,3.432.02,6.981-.041,10.474-.022,1.271.484,1.519,1.555,1.57.134.006.271.01.4.01a8.483,8.483,0,0,0,8.482-8.255c.071-4.087.058-8.243.046-12.263v0c-.006-1.825-.011-3.712-.009-5.583a4.526,4.526,0,0,0-2.162-3.839,12.666,12.666,0,0,0-7.1-1.926ZM8.072,6a1.066,1.066,0,0,0-.8.241,1.416,1.416,0,0,0-.26,1.041c.042,3,.035,6.046.028,8.992,0,1.062-.005,2.16-.005,3.245,0,3.236,0,7.066,0,10.942a5.886,5.886,0,0,0,.319,2.45c.249.475.686.677,1.462.677a11.581,11.581,0,0,0,1.772-.188c.313-.05.636-.113.989-.191,2.844-.63,4.778-2.643,4.812-5.009.093-6.346.06-12.725.018-18.715a2.98,2.98,0,0,0-2.271-2.96,12.5,12.5,0,0,0-4.108-.477h0c-.568,0-1.156,0-1.732-.041C8.218,6.005,8.142,6,8.072,6Z" transform="translate(0 104.667)" fill="#fff" stroke="rgba(0,0,0,0)" stroke-width="1"/>
      <path id="Exclusion_2" data-name="Exclusion 2" d="M4.372,77.159a1.324,1.324,0,0,1-.992-.309,2.036,2.036,0,0,1-.372-1.484c.061-7.6.054-15.327.046-22.8v-.009c0-2.419,0-4.92,0-7.418,0-.211-.006-.426-.011-.634v0a11.021,11.021,0,0,1,.021-1.376,1.392,1.392,0,0,0-.208-1.087.819.819,0,0,0-.645-.237,2.2,2.2,0,0,0-.4.041,3.441,3.441,0,0,1-.626.066A1.12,1.12,0,0,1,.3,41.6a1.954,1.954,0,0,1-.275-1.522,30,30,0,0,0,.024-4.027l0-.04q0-.124-.01-.247a1.234,1.234,0,0,1,.212-.947,1.171,1.171,0,0,1,.872-.251c.941,0,1.443-.015,1.686-.275s.242-.747.242-1.722c0-2.391,0-4.895,0-6.907,0-7.874.008-16.016-.031-24.039,0-.7.088-1.083.316-1.312A1.5,1.5,0,0,1,4.447,0L4.59,0c2.3.059,4.323.088,6.2.088,1.784,0,3.429-.026,5.031-.078.113,0,.227-.006.338-.006A8.384,8.384,0,0,1,20.518,1.16a11.45,11.45,0,0,1,3.3,3.074,14.952,14.952,0,0,1,2.444,5.029,26.9,26.9,0,0,1,.883,5.5,64.786,64.786,0,0,1,.174,6.534,38.652,38.652,0,0,1-.708,6.508,16.636,16.636,0,0,1-4.735,9.143c-.081.077-.165.155-.246.231l-.006.005h0c-.157.147-.32.3-.474.453a.575.575,0,0,0-.1.171c-.018.038-.037.082-.062.129a11.6,11.6,0,0,1,2.6,1.479,8.553,8.553,0,0,1,1.862,1.95,8.251,8.251,0,0,1,1.12,2.415,10.592,10.592,0,0,1,.376,2.872c0,3.264,0,6.668,0,9.671,0,6.3,0,12.824.024,19.26a1.733,1.733,0,0,1-.315,1.281,1.163,1.163,0,0,1-.869.27c-.1,0-.2,0-.313-.015-.583-.05-1.193-.076-1.813-.076s-1.27.026-1.926.076c-.136.01-.256.016-.369.016a1.329,1.329,0,0,1-.991-.3,1.838,1.838,0,0,1-.346-1.347c.049-7.127.042-14.374.036-21.382v-.023c0-2.367,0-4.815,0-7.238A5.131,5.131,0,0,0,18.811,43.1a5.1,5.1,0,0,0-3.744-1.251c-.378,0-.763.008-1.135.015h0c-.372.007-.758.015-1.138.015-.566,0-1.031-.017-1.464-.054-.11-.009-.213-.014-.306-.014a1.1,1.1,0,0,0-.818.252,1.629,1.629,0,0,0-.294,1.188c.032,8.3.029,16.74.026,24.9,0,2.061,0,4.625,0,7.056,0,1.9,0,1.9-1.9,1.9H7.992c-.318,0-.639-.007-.923-.013H7.062c-.3-.006-.611-.013-.92-.013a12.3,12.3,0,0,0-1.278.057A4.787,4.787,0,0,1,4.372,77.159ZM13.486,34.58c.2,0,.4.016.6.032s.406.032.607.032a1.769,1.769,0,0,0,1.26-.422c1.952-1.785,3.837-3.852,4.406-6.864a42.677,42.677,0,0,0,.419-11.182,16.831,16.831,0,0,0-2.262-7.643,4.483,4.483,0,0,0-3.991-2.563c-.15,0-.307.007-.464.021-.463.041-.936.061-1.407.061-.49,0-.984-.022-1.469-.066-.1-.009-.2-.014-.284-.014a.969.969,0,0,0-.728.228,1.421,1.421,0,0,0-.258,1.053c.041,3.163.034,6.379.028,9.49v.012c0,1.128,0,2.294,0,3.45q0,5.469,0,10.938c0,1.577,0,2.446.342,2.91s.981.532,2.391.532c.237,0,.5,0,.788,0Z" transform="translate(28.185 104.127)" fill="#fff" stroke="rgba(0,0,0,0)" stroke-width="1"/>
      <path id="Path_3990" data-name="Path 3990" d="M973.9,550.149a12.563,12.563,0,0,1,7.7-3.379c5.385-.315,8.265,3.2,9.129,7.682a27.841,27.841,0,0,1,.367,5.3q-.021,30.588-.009,61.176c0,2.332,0,2.332-2.4,2.336-1.008,0-2.022-.073-3.02.022-1.18.113-1.409-.369-1.407-1.468q.049-31.02.024-62.04c0-.336,0-.672,0-1.008-.008-3.751-1.305-5.433-4.2-5.442a5.83,5.83,0,0,0-6.177,5.783q-.019,31.236.02,62.472c0,1.292-.284,1.8-1.63,1.7a30.519,30.519,0,0,0-4.172-.005c-1.115.07-1.362-.361-1.347-1.406.058-3.885.025-7.773.024-11.659q0-30.948-.038-61.9c0-1.261.3-1.714,1.594-1.6a26.208,26.208,0,0,0,4.027,0c1.187-.081,1.692.307,1.523,1.525A16.307,16.307,0,0,0,973.9,550.149Z" transform="translate(-894.446 -442.035)" fill="#fff"/>
      <path id="Path_3991" data-name="Path 3991" d="M1067.5,583.315c0-8.829-.124-17.661.053-26.487.086-4.305,1.8-8.133,5.665-10.393,5.252-3.067,13.791-2.7,16.734,6.862a48.968,48.968,0,0,1,1.831,14.207c.005.8-.323.958-1.024.941-1.439-.035-2.881-.052-4.318.013-.886.04-1.148-.266-1.139-1.142a38.046,38.046,0,0,0-.452-8.746,13.07,13.07,0,0,0-1.664-4.4,4.148,4.148,0,0,0-6.989-.536,8.327,8.327,0,0,0-2.207,5.629q-.043,24.474,0,48.949a12.582,12.582,0,0,0,1.04,4.89c.968,2.289,2.369,3.219,4.762,3.151a4.73,4.73,0,0,0,4.48-3.429,20.652,20.652,0,0,0,1.018-6.79c.065-6.238.012-12.477.058-18.715.008-1.018-.322-1.337-1.316-1.306-1.726.054-3.456-.042-5.182,0-.748.016-1.009-.2-.983-.969q.078-2.373,0-4.75c-.025-.785.282-.964,1.008-.958q5.9.042,11.806,0c.782-.007,1.081.18,1.079,1.025-.026,9.31.126,18.622-.073,27.928a17.907,17.907,0,0,1-4.963,12.519c-4.266,4.4-15.609,3.674-18.064-4.644a42.141,42.141,0,0,1-1.263-11.68c-.036-3.551-.007-7.1-.007-10.654q0-5.254,0-10.509Z" transform="translate(-966.078 -440.625)" fill="#fff"/>
      <path id="Path_3992" data-name="Path 3992" d="M877.817,206.144c2.87-.492,5.655-.884,8.4-1.462,3.481-.732,4.02-.255,3.233,3.191-1.511,6.611-8.094,12.013-14.6,11.876a11.791,11.791,0,0,1-10.695-6.373,82.241,82.241,0,0,1-5.9-13.18c-1.478-4.481-.505-7.5,3.43-10.072a43.043,43.043,0,0,1,16.2-6.654c3.984-.692,6.765.757,8.625,4.358a32.8,32.8,0,0,1,1.356,3.158c1.178,3.023,2.284,3.62,5.4,2.767a13.1,13.1,0,0,1,6.117-.264c.643.129,1.386.181,1.573,1.01a1.8,1.8,0,0,1-.9,1.94,37.612,37.612,0,0,1-10.3,4.919c-3.788,1.33-7.56,2.7-11.34,4.057C878.2,205.492,877.926,205.483,877.817,206.144Z" transform="translate(-816.728 -183.302)" fill="#fff"/>
      <path id="Path_3993" data-name="Path 3993" d="M928.677,585.072c0,12.18-.024,24.361.034,36.541.006,1.367-.409,1.735-1.688,1.638a27.8,27.8,0,0,0-3.882.006c-1.047.067-1.411-.229-1.382-1.345.081-3.115.028-6.233.028-9.35q0-32.081-.032-64.162c0-1.388.329-1.873,1.731-1.718a16.559,16.559,0,0,0,3.448,0c1.359-.136,1.78.276,1.773,1.7-.06,12.228-.034,24.457-.034,36.685Z" transform="translate(-862.401 -441.999)" fill="#fff"/>
    </g>
  </g>
</svg>
