<svg xmlns="http://www.w3.org/2000/svg" width="65.448" height="94.465" viewBox="0 0 65.448 94.465">
  <g id="Group_754" data-name="Group 754" transform="translate(-715.179 -183.302)">
    <g id="Group_751" data-name="Group 751" transform="translate(715.679 183.302)">
      <path id="Exclusion_1" data-name="Exclusion 1" d="M2.951,31c-.287,0-.577,0-.858-.006H2.075c-.279,0-.568-.006-.851-.006S.7,30.992.477,31H.445a.458.458,0,0,1-.346-.11.63.63,0,0,1-.09-.469c0-.047,0-.095,0-.14-.005-2.408,0-4.846,0-7.2v-.409q0-.84,0-1.681H0c0-.914,0-1.85,0-2.675,0-2.068,0-4.207.006-6.32a11,11,0,0,1,1.722-5.2A13.541,13.541,0,0,1,4.978,2.782,12.118,12.118,0,0,1,9.524.442,12.01,12.01,0,0,1,12.69,0a10.724,10.724,0,0,1,6.291,2.062,15.53,15.53,0,0,1,1.978,1.656,13.668,13.668,0,0,1,1.6,1.909A13.362,13.362,0,0,1,23.776,7.8a14.617,14.617,0,0,1,.829,2.442,18.67,18.67,0,0,1,.5,4.482c0,1.433,0,2.921,0,4.233,0,3.509,0,7.137.017,10.71a.993.993,0,0,1-.188.726.714.714,0,0,1-.533.165c-.047,0-.1,0-.151-.006-.284-.02-.586-.029-.95-.029-.269,0-.543.005-.807.01h0c-.265,0-.539.01-.811.01a10.952,10.952,0,0,1-1.583-.094,9.633,9.633,0,0,1-2.279-.628,13.84,13.84,0,0,1-2.095-1.083l-.067-.042a15.781,15.781,0,0,1-2.737-1.982c-.1-.1-.2-.2-.307-.2-.088,0-.17.069-.259.217a6.314,6.314,0,0,1-1.041,1.309,7.569,7.569,0,0,1-1.27.981A17.317,17.317,0,0,1,7.084,30.4a8.5,8.5,0,0,1-2.052.5A17.408,17.408,0,0,1,2.951,31ZM9.293,6.82a1.072,1.072,0,0,0-.507.209l-.064.039a7.393,7.393,0,0,0-2.536,3.22l-.053.1-.039.074-.009.017a3.251,3.251,0,0,0-.5,1.5c0,1.122.009,2.263.016,3.366V15.4c.006,1.047.012,2.13.015,3.195,0,1.394,0,2.751,0,4.187v.1c0,.588,0,1.2,0,1.8A6.717,6.717,0,0,0,9.6,18.926c-.08-2.594-.063-5.235-.047-7.79v0c.008-1.173.015-2.385.014-3.578a1.593,1.593,0,0,1,.018-.2c.026-.2.052-.4-.117-.492A.346.346,0,0,0,9.293,6.82Zm6.251-.276a.155.155,0,0,0-.116.046.661.661,0,0,0-.1.451c.014,1.5.011,3.025.008,4.5,0,.542,0,1.031,0,1.522,0,2.225,0,4.067,0,5.8,0,.056,0,.114-.007.17a1.016,1.016,0,0,0,.031.42c.716,1.828,1.67,3.647,3.785,4.567a.765.765,0,0,0,.286.078.165.165,0,0,0,.124-.045c.069-.07.065-.216.062-.371q0-.025,0-.051c-.024-1.309,0-2.639.014-3.925a65.311,65.311,0,0,0-.157-7.141A7.884,7.884,0,0,0,15.911,6.71.73.73,0,0,0,15.544,6.544Z" transform="translate(19.828 19.421)" fill="#fe9c00" stroke="rgba(0,0,0,0)" stroke-width="1"/>
      <path id="Exclusion_3" data-name="Exclusion 3" d="M.509,39.568a.52.52,0,0,1-.381-.114c-.109-.109-.116-.289-.115-.531.007-1.724.006-3.466,0-5.152,0-.593,0-1.265,0-1.91q0-3.061,0-6.121V25.7c0-8.117,0-16.51-.018-24.764A1.035,1.035,0,0,1,.187.175.857.857,0,0,1,.82,0L.934,0c.638.022,1.341.032,2.211.032.442,0,.9,0,1.3,0s.845,0,1.292,0l.621,0a6.293,6.293,0,0,1,2.3.438,5.629,5.629,0,0,1,1.845,1.19,5.539,5.539,0,0,1,1.239,1.8,6.09,6.09,0,0,1,.482,2.28c.05,2.318.056,4.771.018,7.953a6.725,6.725,0,0,1-.623,2.862,5.648,5.648,0,0,1-.784,1.2A6.324,6.324,0,0,1,9.71,18.788a.39.39,0,0,0-.091.114c-.015.025-.032.052-.053.081A7.721,7.721,0,0,1,11,19.994a5.6,5.6,0,0,1,1.029,1.231,5.271,5.271,0,0,1,.611,1.47,6.661,6.661,0,0,1,.183,1.73c-.032,1.753-.025,3.536-.018,5.261v0c0,.881.007,1.791.006,2.691a9.855,9.855,0,0,1-.146,1.711,7.642,7.642,0,0,1-.456,1.577,6.789,6.789,0,0,1-.8,1.426A7.245,7.245,0,0,1,10.22,38.35a4.8,4.8,0,0,1-2.836,1.139c-1.03.063-2.057.071-2.837.071-.4,0-.811,0-1.206,0-.372,0-.794,0-1.2,0-.617,0-1.125.006-1.6.018Zm3.665-19.4a.561.561,0,0,0-.42.122.683.683,0,0,0-.128.506c.017,1.872.014,3.776.012,5.617v.011c0,.7,0,1.33,0,1.958,0,.672,0,1.355,0,2.015v.01c.005,1.773.01,3.607-.021,5.411-.011.657.25.785.8.811.069,0,.14,0,.209,0a4.383,4.383,0,0,0,4.382-4.265c.037-2.111.03-4.259.024-6.336v0c0-.943-.006-1.918,0-2.884a2.338,2.338,0,0,0-1.117-1.983,6.544,6.544,0,0,0-3.667-1ZM4.17,3.1a.551.551,0,0,0-.412.124.731.731,0,0,0-.134.538c.022,1.549.018,3.123.014,4.646,0,.549,0,1.116,0,1.677,0,1.672,0,3.651,0,5.653A3.04,3.04,0,0,0,3.8,17.005c.128.245.354.35.756.35a5.982,5.982,0,0,0,.916-.1c.161-.026.329-.058.511-.1a2.875,2.875,0,0,0,2.486-2.588C8.517,11.293,8.5,8,8.478,4.9A1.54,1.54,0,0,0,7.305,3.373a6.461,6.461,0,0,0-2.122-.247h0c-.294,0-.6,0-.9-.021C4.246,3.1,4.206,3.1,4.17,3.1Z" transform="translate(0 54.076)" fill="#fd130b" stroke="rgba(0,0,0,0)" stroke-width="1"/>
      <path id="Exclusion_2" data-name="Exclusion 2" d="M2.259,39.864a.684.684,0,0,1-.512-.16,1.052,1.052,0,0,1-.192-.766c.032-3.926.028-7.919.024-11.779v0c0-1.25,0-2.542,0-3.832,0-.109,0-.22-.006-.328v0a5.7,5.7,0,0,1,.011-.711.719.719,0,0,0-.108-.561A.423.423,0,0,0,1.14,21.6a1.14,1.14,0,0,0-.208.021,1.779,1.779,0,0,1-.324.034.579.579,0,0,1-.454-.162A1.009,1.009,0,0,1,.013,20.7a15.5,15.5,0,0,0,.012-2.081V18.6l0-.128a.638.638,0,0,1,.109-.489.605.605,0,0,1,.45-.13c.486,0,.745-.008.871-.142s.125-.386.125-.89c0-1.235,0-2.529,0-3.569,0-4.068,0-8.274-.016-12.42,0-.363.046-.56.163-.678A.776.776,0,0,1,2.3,0h.074C3.558.032,4.6.047,5.572.047c.922,0,1.772-.013,2.6-.04l.175,0A4.332,4.332,0,0,1,10.6.6a5.915,5.915,0,0,1,1.7,1.588,7.725,7.725,0,0,1,1.263,2.6,13.9,13.9,0,0,1,.456,2.842A33.474,33.474,0,0,1,14.114,11a19.973,19.973,0,0,1-.366,3.362A8.6,8.6,0,0,1,11.3,19.09l-.127.119,0,0h0c-.081.076-.165.154-.245.234a.3.3,0,0,0-.052.088c-.009.02-.019.042-.032.066a5.994,5.994,0,0,1,1.344.764,4.42,4.42,0,0,1,.962,1.008,4.263,4.263,0,0,1,.579,1.248,5.473,5.473,0,0,1,.194,1.484c0,1.686,0,3.445,0,5,0,3.257,0,6.626.012,9.951a.9.9,0,0,1-.163.662.6.6,0,0,1-.449.14c-.049,0-.1,0-.162-.008-.3-.026-.616-.039-.937-.039s-.656.013-.995.039c-.07.005-.132.008-.19.008a.687.687,0,0,1-.512-.155.95.95,0,0,1-.179-.7c.025-3.682.022-7.426.018-11.047v-.012c0-1.223,0-2.487,0-3.739a2.651,2.651,0,0,0-.644-1.94,2.634,2.634,0,0,0-1.934-.646c-.2,0-.394,0-.586.008h0c-.192,0-.391.008-.588.008-.293,0-.533-.009-.756-.028-.057,0-.11-.007-.158-.007a.566.566,0,0,0-.422.13.841.841,0,0,0-.152.614c.016,4.29.015,8.649.014,12.864,0,1.065,0,2.389,0,3.645,0,.98,0,.98-.984.982h-.02c-.164,0-.33,0-.477-.007h0c-.155,0-.316-.007-.475-.007a6.36,6.36,0,0,0-.661.029A2.473,2.473,0,0,1,2.259,39.864Zm4.709-22c.1,0,.206.008.307.016s.209.016.314.016a.914.914,0,0,0,.651-.218,6.446,6.446,0,0,0,2.276-3.546,22.049,22.049,0,0,0,.217-5.777A8.7,8.7,0,0,0,9.564,4.408,2.316,2.316,0,0,0,7.5,3.084c-.078,0-.158,0-.24.011-.239.021-.484.032-.727.032s-.508-.011-.759-.034c-.053,0-.1-.007-.147-.007a.5.5,0,0,0-.376.118.734.734,0,0,0-.133.544c.021,1.634.018,3.3.015,4.9v.006c0,.583,0,1.185,0,1.783q0,2.826,0,5.651c0,.815,0,1.264.177,1.5s.507.275,1.235.275l.407,0Z" transform="translate(14.562 53.798)" fill="#fc140c" stroke="rgba(0,0,0,0)" stroke-width="1"/>
      <path id="Path_3990" data-name="Path 3990" d="M970.451,548.484a6.49,6.49,0,0,1,3.978-1.746c2.782-.163,4.27,1.655,4.716,3.969a14.379,14.379,0,0,1,.19,2.739q-.011,15.8,0,31.607c0,1.2,0,1.2-1.239,1.207-.521,0-1.045-.038-1.561.011-.61.058-.728-.191-.727-.759q.025-16.026.013-32.053,0-.26,0-.521c0-1.938-.675-2.807-2.169-2.812a3.012,3.012,0,0,0-3.192,2.988q-.01,16.138.01,32.276c0,.667-.147.932-.842.881a15.736,15.736,0,0,0-2.155,0c-.576.036-.7-.187-.7-.727.03-2.007.013-4.016.012-6.024q0-15.99-.02-31.979c0-.652.155-.885.824-.828a13.535,13.535,0,0,0,2.08,0c.614-.042.874.159.787.788A8.442,8.442,0,0,0,970.451,548.484Z" transform="translate(-929.402 -492.626)" fill="#fc140c"/>
      <path id="Path_3991" data-name="Path 3991" d="M1067.44,564.662c0-4.562-.064-9.125.027-13.685a6.027,6.027,0,0,1,2.927-5.369c2.714-1.585,7.125-1.4,8.646,3.545a25.3,25.3,0,0,1,.946,7.34c0,.416-.167.495-.529.486-.743-.018-1.488-.027-2.231.007-.458.021-.593-.137-.589-.59a19.652,19.652,0,0,0-.234-4.518,6.751,6.751,0,0,0-.859-2.272,2.143,2.143,0,0,0-3.611-.277,4.3,4.3,0,0,0-1.14,2.908q-.022,12.645,0,25.289a6.5,6.5,0,0,0,.537,2.526,2.307,2.307,0,0,0,2.46,1.628,2.444,2.444,0,0,0,2.315-1.772,10.676,10.676,0,0,0,.526-3.508c.033-3.223.006-6.446.03-9.669,0-.526-.167-.691-.68-.675-.892.028-1.785-.021-2.677,0-.386.008-.521-.105-.508-.5q.04-1.226,0-2.454c-.013-.405.146-.5.521-.5q3.05.022,6.1,0c.4,0,.559.093.557.529-.013,4.81.065,9.621-.038,14.429a9.253,9.253,0,0,1-2.564,6.468c-2.2,2.274-8.064,1.9-9.333-2.4a21.776,21.776,0,0,1-.653-6.034c-.019-1.835,0-3.669,0-5.5q0-2.715,0-5.43Z" transform="translate(-1015.04 -490.941)" fill="#fe130b"/>
      <path id="Path_3992" data-name="Path 3992" d="M868.049,195.1c1.483-.254,2.922-.457,4.34-.755,1.8-.378,2.077-.132,1.67,1.649a8.084,8.084,0,0,1-7.541,6.136,6.092,6.092,0,0,1-5.526-3.293,42.511,42.511,0,0,1-3.047-6.81c-.764-2.315-.261-3.875,1.772-5.2a22.238,22.238,0,0,1,8.368-3.438,3.821,3.821,0,0,1,4.456,2.252,16.936,16.936,0,0,1,.7,1.632c.609,1.562,1.18,1.87,2.79,1.43a6.766,6.766,0,0,1,3.16-.137c.332.067.716.093.812.522a.927.927,0,0,1-.467,1,19.431,19.431,0,0,1-5.324,2.542c-1.957.687-3.906,1.4-5.859,2.1C868.244,194.767,868.1,194.762,868.049,195.1Z" transform="translate(-836.487 -183.302)" fill="#fe130b"/>
      <path id="Path_3993" data-name="Path 3993" d="M925.332,566.5c0,6.293-.013,12.586.018,18.879,0,.706-.211.9-.872.846a14.364,14.364,0,0,0-2.005,0c-.541.035-.729-.118-.714-.695.042-1.609.014-3.22.015-4.831q0-16.575-.016-33.15c0-.717.17-.968.894-.887a8.559,8.559,0,0,0,1.781,0c.7-.07.92.142.916.88-.031,6.318-.018,12.636-.018,18.953Z" transform="translate(-891.09 -492.583)" fill="#fd140c"/>
    </g>
  </g>
</svg>
